<svg width="44" height="44" viewBox="0 0 44 44" fill="none" xmlns="http://www.w3.org/2000/svg">
<circle cx="22" cy="22" r="22" fill="#FFDFF6"/>
<path opacity="0.4" d="M29.3774 15.7708H30.8508C30.645 15.4783 30.4283 15.2075 30.2008 14.9366L29.3774 15.7708Z" fill="#D64BC2"/>
<path opacity="0.4" d="M29.0632 13.7883C28.7923 13.5608 28.5215 13.3441 28.229 13.1383V14.6116L29.0632 13.7883Z" fill="#D64BC2"/>
<path opacity="0.4" d="M27.4165 17.3958C27.3082 17.3958 27.2107 17.3741 27.1023 17.3308C26.9073 17.2441 26.7448 17.0925 26.6582 16.8866C26.6148 16.7891 26.5932 16.6808 26.5932 16.5725V12.2391C26.5932 12.2283 26.604 12.2175 26.604 12.1958C25.2065 11.5458 23.6465 11.1666 21.9998 11.1666C16.0198 11.1666 11.1665 16.02 11.1665 22C11.1665 27.98 16.0198 32.8333 21.9998 32.8333C27.9798 32.8333 32.8332 27.98 32.8332 22C32.8332 20.3533 32.454 18.7933 31.7932 17.385C31.7823 17.385 31.7715 17.3958 31.7498 17.3958H27.4165Z" fill="#D64BC2"/>
<path d="M30.2118 14.9367L33.4077 11.7409C33.7218 11.4267 33.7218 10.9067 33.4077 10.5926C33.0935 10.2784 32.5735 10.2784 32.2593 10.5926L29.0635 13.7884C29.4751 14.1459 29.8543 14.5359 30.2118 14.9367Z" fill="#D64BC2"/>
<path d="M28.2294 12.25C28.2294 11.8058 27.8611 11.4375 27.4169 11.4375C26.9836 11.4375 26.6369 11.7842 26.6152 12.2067C27.1786 12.4775 27.7202 12.7808 28.2294 13.1383V12.25Z" fill="#D64BC2"/>
<path d="M32.5627 16.5834C32.5627 16.1392 32.1944 15.7709 31.7502 15.7709H30.8511C31.2086 16.28 31.5227 16.8217 31.7827 17.385C32.2161 17.3634 32.5627 17.0167 32.5627 16.5834Z" fill="#D64BC2"/>
<path d="M23.8957 21.805L22.8123 21.4258V19.0208H22.899C23.4515 19.0208 23.8957 19.5083 23.8957 20.1042C23.8957 20.5483 24.264 20.9167 24.7082 20.9167C25.1523 20.9167 25.5207 20.5483 25.5207 20.1042C25.5207 18.6092 24.3507 17.3958 22.899 17.3958H22.8123V17.125C22.8123 16.6808 22.444 16.3125 21.9998 16.3125C21.5557 16.3125 21.1873 16.6808 21.1873 17.125V17.3958H20.8624C19.5515 17.3958 18.479 18.5008 18.479 19.8658C18.479 21.4475 19.3998 21.9567 20.104 22.2058L21.1873 22.585V24.99H21.1007C20.5482 24.99 20.104 24.5025 20.104 23.9067C20.104 23.4625 19.7357 23.0942 19.2915 23.0942C18.8473 23.0942 18.479 23.4625 18.479 23.9067C18.479 25.4017 19.649 26.615 21.1007 26.615H21.1873V26.8858C21.1873 27.33 21.5557 27.6983 21.9998 27.6983C22.444 27.6983 22.8123 27.33 22.8123 26.8858V26.615H23.1373C24.4482 26.615 25.5207 25.51 25.5207 24.145C25.5207 22.5525 24.5998 22.0433 23.8957 21.805ZM20.6348 20.6567C20.2665 20.5267 20.104 20.4508 20.104 19.855C20.104 19.3892 20.4507 19.01 20.8624 19.01H21.1873V20.8408L20.6348 20.6567ZM23.1373 24.9792H22.8123V23.1483L23.3648 23.3433C23.7332 23.4733 23.8957 23.5492 23.8957 24.145C23.8957 24.6 23.549 24.9792 23.1373 24.9792Z" fill="#D64BC2"/>
</svg>
