<svg width="61" height="58" viewBox="0 0 61 58" fill="none" xmlns="http://www.w3.org/2000/svg">
<g clip-path="url(#clip0_124_146)">
<rect width="61" height="58" rx="29" fill="white"/>
<ellipse cx="30.5" cy="29" rx="30.5" ry="29" fill="#DEF4FF"/>
<path d="M24.5525 7.77222C24.5525 7.77222 17.1898 9.28602 17.7266 18.479C18.2634 27.672 16.5371 30.2646 16.5371 30.2646L18.4281 29.7658L24.5464 33.7504L41.0408 30.6126L43.6272 31.3434L44.4263 29.6266C44.4263 29.6266 45.3352 30.5546 46.238 30.6068C46.238 30.6068 45.3962 26.4772 45.5548 24.6328C45.8903 20.77 43.9383 15.1498 43.9383 15.1498L24.5403 7.77222H24.5525Z" fill="#441D39"/>
<path d="M54.772 50.9243C50.6118 49.5961 41.3337 45.1533 38.18 43.6221C37.936 43.5061 37.7347 43.4017 37.57 43.3263C37.2772 43.1813 37.1064 43.1001 37.1064 43.1001H24.5587C24.5587 43.1001 24.394 43.1813 24.0951 43.3263C23.9304 43.4075 23.723 43.5061 23.4851 43.6221C23.0215 43.8483 22.4298 44.1325 21.7405 44.4631C17.7206 46.3887 10.4433 49.7933 6.89308 50.9243C1.84229 52.5425 1.84229 60.7437 1.84229 60.7437H59.8228C59.8228 60.7437 59.8228 52.5425 54.772 50.9243Z" fill="#FDEBD9"/>
<path d="M36.3191 37.4213H25.2659L24.5522 43.0937C24.5522 44.2073 27.3643 45.1121 30.8291 45.1121C34.2939 45.1121 37.106 44.2073 37.106 43.0937L36.3252 37.4213H36.3191Z" fill="#C1735C"/>
<path d="M20.4405 17.7477C20.4405 17.7477 20.8431 14.6273 23.6247 14.0473C23.6247 14.0473 43.1874 14.0473 39.2651 14.0473C39.2651 14.0473 41.8088 14.0473 42.3395 17.5273C42.4188 18.0493 43.2301 23.4027 43.1813 25.5081C43.1508 26.8595 43.7059 26.1461 43.7059 26.1461C43.7059 26.1461 44.3037 23.9885 44.4013 21.1581C44.5843 15.7641 43.8462 6.48987 31.8841 6.48987C19.922 6.48987 18.8179 13.3165 18.8179 22.1209L19.2571 26.4535C19.2754 26.6275 19.4279 26.7551 19.6109 26.7551C19.9586 26.7551 20.4344 17.7477 20.4344 17.7477H20.4405Z" fill="#C1735C"/>
<path d="M41.9248 16.6224C42.1573 16.6224 42.3457 16.4432 42.3457 16.2222C42.3457 16.0011 42.1573 15.822 41.9248 15.822C41.6924 15.822 41.5039 16.0011 41.5039 16.2222C41.5039 16.4432 41.6924 16.6224 41.9248 16.6224Z" fill="#FF9988"/>
<path d="M24.7896 41.2144C24.7896 41.2144 33.36 41.9626 36.3795 38.3898V34.2834L25.5154 35.2752L24.7896 41.2144Z" fill="#A5503C"/>
<path fill-rule="evenodd" clip-rule="evenodd" d="M31.7305 39.0687C37.5312 39.0687 42.4099 34.2774 43.8265 27.7778C44.0902 27.7098 44.2106 27.6539 44.2106 27.6539C45.4916 27.0053 46.1809 25.5054 45.9857 23.5538C45.851 22.2069 44.7808 21.9082 44.1305 21.8523C43.3123 14.427 38.0724 8.69995 31.7305 8.69995C25.2577 8.69995 19.9329 14.6657 19.2855 22.314C18.9783 22.3087 17.1513 22.3532 17.0843 24.1511C17.0111 26.1143 17.798 27.5679 19.1156 28.1412C19.1156 28.1412 19.3135 28.2189 19.7528 28.2849C21.3072 34.5251 26.0816 39.0687 31.7305 39.0687Z" fill="#C1735C"/>
<path d="M37.2459 25.0786C37.6536 25.0786 37.984 24.5333 37.984 23.8606C37.984 23.188 37.6536 22.6426 37.2459 22.6426C36.8383 22.6426 36.5078 23.188 36.5078 23.8606C36.5078 24.5333 36.8383 25.0786 37.2459 25.0786Z" fill="#441D39"/>
<path d="M26.1746 24.8294C26.5823 24.8294 26.9127 24.2841 26.9127 23.6114C26.9127 22.9387 26.5823 22.3934 26.1746 22.3934C25.767 22.3934 25.4365 22.9387 25.4365 23.6114C25.4365 24.2841 25.767 24.8294 26.1746 24.8294Z" fill="#441D39"/>
<path d="M32.2016 29.336H31.0365C30.518 29.336 30.0605 29.1446 29.8165 28.8314C29.6396 28.6052 29.5908 28.3384 29.6762 28.0774C29.9385 27.2654 30.2984 25.0614 30.3045 25.0382C30.3289 24.8816 30.4875 24.7772 30.6522 24.7946C30.8169 24.8178 30.9328 24.9686 30.9084 25.1252C30.8962 25.218 30.5363 27.3988 30.2618 28.2456C30.2374 28.3268 30.2496 28.408 30.3106 28.4892C30.4387 28.6574 30.7254 28.7618 31.0426 28.7618H32.2077C32.3785 28.7618 32.5127 28.8894 32.5127 29.0518C32.5127 29.2142 32.3785 29.3418 32.2077 29.3418L32.2016 29.336Z" fill="#A5503C"/>
<path d="M37.8984 26.9872C39.0742 26.9872 40.0273 26.7795 40.0273 26.5232C40.0273 26.2669 39.0742 26.0592 37.8984 26.0592C36.7227 26.0592 35.7695 26.2669 35.7695 26.5232C35.7695 26.7795 36.7227 26.9872 37.8984 26.9872Z" fill="#AF5D4E"/>
<path d="M25.4736 26.9872C26.6494 26.9872 27.6025 26.7795 27.6025 26.5232C27.6025 26.2669 26.6494 26.0592 25.4736 26.0592C24.2979 26.0592 23.3447 26.2669 23.3447 26.5232C23.3447 26.7795 24.2979 26.9872 25.4736 26.9872Z" fill="#AF5D4E"/>
<path d="M39.8693 20.8975C37.8075 20.4509 36.2764 20.8976 35.3431 21.0716C34.9466 21.147 34.8246 20.6772 34.8246 20.6772C34.727 20.364 35.1601 20.1146 35.4773 20.045C36.5326 19.7956 37.8868 19.6215 39.9486 20.1725C40.3451 20.2769 40.3878 20.5901 40.3878 20.5901C40.3634 20.9381 40.1377 20.9613 39.8693 20.8975Z" fill="#441D39"/>
<path d="M23.4238 20.8157C25.5039 20.4445 27.0167 20.9549 27.9439 21.1579C28.3404 21.2449 28.4746 20.7867 28.4746 20.7867C28.5844 20.4793 28.1635 20.2125 27.8524 20.1255C26.8093 19.8413 25.4612 19.6151 23.375 20.0849C22.9724 20.1777 22.9175 20.4851 22.9175 20.4851C22.9236 20.8331 23.1493 20.8621 23.4238 20.8157Z" fill="#441D39"/>
<path d="M31.2744 33.744C29.8287 33.744 28.688 33.454 28.6087 33.4366C28.444 33.396 28.3525 33.2336 28.3952 33.0828C28.4379 32.9262 28.6087 32.8392 28.7673 32.8798C28.7978 32.8856 31.6038 33.5932 33.8669 32.7522C34.0255 32.6942 34.2024 32.7696 34.2634 32.9146C34.3244 33.0654 34.2451 33.2336 34.0926 33.2916C33.1593 33.6396 32.1589 33.7498 31.2744 33.7498V33.744Z" fill="#A5503C"/>
<path d="M40.3389 7.4766C31.9697 1.1836 24.5521 7.7724 24.5521 7.7724C17.2138 9.0484 18.2569 19.3492 18.4338 20.4512C18.6107 21.5474 18.8364 22.3072 18.8364 22.3072C18.995 22.313 19.1414 22.3072 19.2817 22.2782L19.9039 26.5238C19.9466 26.6746 20.1845 26.6862 20.2394 26.5238C20.2943 26.4658 20.4651 23.9834 20.6298 21.3908C22.0206 19.4362 21.9596 14.86 24.5521 12.8126C25.8209 11.8092 27.6021 12.598 27.6021 12.598C27.6021 12.598 28.9319 10.365 32.0978 11.6642C34.9465 12.83 38.4479 20.1786 42.3092 21.9244C42.4617 24.314 42.6142 26.4716 42.663 26.5296C42.7179 26.692 42.9558 26.6804 42.9985 26.5296L43.6207 22.2898L45.3897 21.414C45.3897 21.414 46.1888 10.9508 40.3267 7.4824L40.3389 7.4766Z" fill="#441D39"/>
<path d="M54.7717 50.9245C52.5757 50.2227 48.9523 48.6509 45.5546 47.1023L36.0752 50.2981V58.9227H35.4652V50.5011L33.501 51.1623V60.7381H59.8225C59.8225 60.7381 59.8225 52.5369 54.7717 50.9187V50.9245Z" fill="#4598C4"/>
<path d="M41.0162 43.7324C38.015 42.7522 33.501 51.1622 33.501 51.1622L35.4652 50.501V58.9226H36.0752V50.298L45.5546 47.1022L45.5912 47.0906C45.5912 47.0906 44.0235 44.7126 41.0223 43.7324H41.0162Z" fill="#2B7FA5"/>
<path d="M26.3577 50.5408L24.9486 58.6898L24.3447 58.597L25.7721 50.3436L16.1219 47.0898C12.7181 48.6442 9.08249 50.2218 6.88039 50.9236C1.82959 52.5418 1.82959 60.743 1.82959 60.743H28.0779L28.2121 51.1672L26.3577 50.5408Z" fill="#4598C4"/>
<path d="M20.6973 43.7322C17.7022 44.7066 16.1345 47.0788 16.1284 47.0904L25.7786 50.3442L24.3512 58.5976L24.9551 58.6904L26.3642 50.5414L28.2186 51.1678C28.2186 51.1678 23.6985 42.7578 20.7034 43.738L20.6973 43.7322Z" fill="#2B7FA5"/>
</g>
<defs>
<clipPath id="clip0_124_146">
<rect width="61" height="58" rx="29" fill="white"/>
</clipPath>
</defs>
</svg>
