<svg width="350" height="316" viewBox="0 0 350 316" fill="none" xmlns="http://www.w3.org/2000/svg">
<path d="M278.896 275.766H45.8487C43.4668 275.766 41.5354 273.527 41.5354 270.766C41.5354 268.005 43.4668 265.766 45.8487 265.766H278.896C281.278 265.766 283.209 268.005 283.209 270.766C283.209 273.527 281.278 275.766 278.896 275.766Z" fill="#DCEDF9"/>
<path d="M117.496 186.557C111.322 182.88 106.817 176.614 105.398 169.597C103.98 162.579 105.649 154.976 109.904 149.211C113.241 144.7 118.164 140.857 118.748 135.342C119.415 129.578 115.077 124.649 113.158 119.218C110.738 112.618 111.99 104.764 116.328 99.2503C119.499 95.2401 124.087 92.316 126.173 87.7209C127.508 84.7968 127.675 81.5385 128.009 78.3637C128.343 75.1889 129.01 71.8471 131.179 69.4242C133.265 67.0014 137.187 65.9153 139.773 67.8368C144.612 62.824 150.286 56.8087 156.71 54.1352C163.135 51.4617 170.81 51.044 176.818 54.5529C181.573 57.31 184.744 62.1557 188.832 65.7482C192.42 68.8394 196.675 71.0116 200.513 73.6851C204.351 76.4421 207.939 79.9511 209.107 84.5461C211.026 92.0653 206.02 99.5845 205.769 107.354C205.519 114.874 209.858 121.808 210.775 129.327C211.777 136.93 209.19 144.616 205.102 151.133C201.097 157.649 195.59 163.08 190.251 168.51C188.081 178.285 180.823 185.22 171.645 189.23C162.467 193.24 152.205 193.909 142.193 193.574C134.016 193.073 124.505 190.65 117.496 186.557Z" fill="#6B3C00"/>
<path d="M128.676 166.756C126.59 163.999 126.674 160.156 127.508 156.814C128.342 153.472 129.928 150.297 130.595 146.955C131.513 142.36 130.762 137.598 129.844 133.087C128.926 128.492 127.758 123.897 127.842 119.218C127.925 114.539 129.427 109.694 133.015 106.686C145.53 96.1592 165.804 99.8352 182.074 101.506C190.334 102.342 195.924 110.279 198.51 118.132C201.097 125.985 200.262 134.758 197.092 142.444C194.005 150.13 188.748 156.814 182.908 162.579C179.404 166.004 173.146 163.247 168.307 164.25C163.551 165.169 159.463 168.093 155.041 169.931C147.949 172.938 139.689 173.189 132.431 170.766C130.178 169.931 128.426 169.012 128.676 166.756Z" fill="#593200"/>
<path d="M218.451 174.86C212.611 167.257 204.101 161.66 194.756 159.32C190.501 158.234 185.996 157.816 181.824 156.48C180.656 156.146 179.488 155.644 178.32 155.059C176.651 148.626 175.817 141.943 175.9 135.259H164.553H162.551H151.204C151.287 141.943 150.453 148.626 148.784 155.059C147.616 155.644 146.448 156.062 145.28 156.48C141.025 157.816 136.603 158.234 132.347 159.32C123.003 161.66 114.493 167.174 108.652 174.86C102.812 182.463 99.5579 192.071 99.6413 201.762V262.918L209.858 261.331C219.619 261.164 227.462 253.227 227.462 243.452V201.846C227.546 192.154 224.292 182.546 218.451 174.86Z" fill="#FFC582"/>
<path d="M175.566 258.908C177.652 253.394 177.819 247.378 178.653 241.53C180.155 230.251 183.743 219.474 186.412 208.446C188.999 197.417 191.335 185.387 188.498 174.442C172.396 176.364 156.126 176.364 140.107 174.359C134.016 176.949 130.845 184.635 129.761 191.068C128.593 197.585 129.427 204.268 129.594 210.868C129.761 218.053 129.01 225.322 129.344 232.507C129.677 239.692 131.179 247.128 135.267 253.06C137.77 256.736 141.191 259.66 144.862 262.25L174.398 261.832C174.732 260.913 175.232 259.91 175.566 258.908Z" fill="white"/>
<path d="M129.594 196.833C130.762 190.316 133.849 182.63 139.94 180.123C156.043 182.128 172.312 182.128 188.332 180.207C188.999 182.88 189.416 185.637 189.583 188.394C189.833 183.632 189.5 178.954 188.332 174.442C172.229 176.364 155.959 176.364 139.94 174.359C133.849 176.949 130.679 184.635 129.594 191.068C129.01 194.66 128.927 198.253 129.094 201.845C129.177 200.175 129.344 198.504 129.594 196.833Z" fill="#EDEDED"/>
<path d="M129.428 216.55C129.428 216.299 129.428 216.132 129.428 215.881C129.344 220.811 129.01 225.823 129.177 230.753C129.26 225.991 129.511 221.312 129.428 216.55Z" fill="#EDEDED"/>
<path d="M150.536 145.869C159.38 145.786 168.224 143.363 175.983 139.019C175.9 137.849 175.9 136.596 175.9 135.426H164.553H162.55H151.203C151.203 138.851 150.953 142.36 150.536 145.869Z" fill="#94724C"/>
<path d="M140.19 103.428C139.189 101.59 138.021 99.7517 136.185 98.6656C134.35 97.5795 131.763 97.5795 130.345 99.1668C129.177 100.42 129.094 102.342 129.26 104.013C129.511 107.438 130.262 111.03 132.347 113.787C134.433 116.545 138.104 118.383 141.442 117.464C141.859 112.785 142.443 107.605 140.19 103.428Z" fill="#FFC582"/>
<path d="M139.94 107.104C140.023 107.104 140.19 107.104 140.274 107.187C139.773 106.018 139.356 104.932 138.689 103.845C138.021 102.843 137.187 101.84 136.102 101.339C135.017 100.754 133.682 100.587 132.514 101.088C131.43 101.59 130.512 102.759 130.679 104.013C131.346 103.261 132.514 103.01 133.516 103.177C134.517 103.344 135.351 104.18 135.685 105.182C134.767 105.266 134.183 106.185 134.016 107.02C133.849 107.856 134.1 108.775 134.433 109.61C134.6 110.111 134.851 110.529 135.268 110.947C135.601 111.281 136.102 111.532 136.603 111.532C136.102 112.117 135.351 112.618 134.6 112.701C136.269 113.537 138.438 113.37 139.94 112.367C140.19 110.529 140.107 108.775 139.94 107.104Z" fill="#D6A56D"/>
<path d="M185.328 105.182C186.329 103.344 187.497 101.506 189.333 100.42C191.168 99.3339 193.755 99.3339 195.173 100.921C196.341 102.174 196.425 104.096 196.258 105.767C196.007 109.192 195.257 112.785 193.171 115.542C191.085 118.299 187.414 120.137 184.076 119.218C183.743 114.623 183.075 109.359 185.328 105.182Z" fill="#FFC582"/>
<path d="M185.578 108.858C185.495 108.858 185.328 108.858 185.244 108.942C185.745 107.772 186.162 106.686 186.83 105.6C187.497 104.597 188.331 103.595 189.416 103.093C190.501 102.509 191.836 102.341 193.004 102.843C194.088 103.344 195.006 104.514 194.839 105.767C194.172 105.015 193.004 104.764 192.003 104.931C191.001 105.098 190.167 105.934 189.833 106.936C190.751 107.02 191.335 107.939 191.502 108.775C191.669 109.61 191.419 110.529 191.085 111.364C190.918 111.866 190.668 112.283 190.25 112.701C189.833 113.119 189.416 113.286 188.915 113.286C189.416 113.871 190.167 114.372 190.918 114.456C189.249 115.291 187.08 115.124 185.578 114.122C185.411 112.367 185.411 110.613 185.578 108.858Z" fill="#D6A56D"/>
<path d="M137.854 114.038C141.771 114.038 144.946 110.859 144.946 106.937C144.946 103.015 141.771 99.8352 137.854 99.8352C133.937 99.8352 130.762 103.015 130.762 106.937C130.762 110.859 133.937 114.038 137.854 114.038Z" fill="#008069"/>
<path d="M188.165 114.038C192.082 114.038 195.257 110.859 195.257 106.937C195.257 103.015 192.082 99.8352 188.165 99.8352C184.248 99.8352 181.073 103.015 181.073 106.937C181.073 110.859 184.248 114.038 188.165 114.038Z" fill="#008069"/>
<path d="M162.968 142.444C176.883 142.444 188.165 127.257 188.165 108.524C188.165 89.7906 176.883 74.6041 162.968 74.6041C149.052 74.6041 137.77 89.7906 137.77 108.524C137.77 127.257 149.052 142.444 162.968 142.444Z" fill="#FFC582"/>
<path d="M139.273 95.7415C138.522 95.4073 139.857 93.987 141.859 93.4857C147.282 91.9818 153.289 91.397 157.795 94.7389C157.962 95.6579 156.794 96.8276 155.792 96.9111C154.875 96.9946 153.957 96.6605 153.039 96.3263C148.701 94.7389 143.778 94.6553 139.273 95.7415Z" fill="#6B3C00"/>
<path d="M186.412 95.7415C187.163 95.4073 185.828 93.987 183.826 93.4857C178.403 91.9818 172.395 91.397 167.89 94.7389C167.723 95.6579 168.891 96.8276 169.892 96.9111C170.81 96.9946 171.728 96.6605 172.646 96.3263C176.984 94.7389 181.907 94.6553 186.412 95.7415Z" fill="#6B3C00"/>
<path d="M148.868 118.466C152.692 118.466 155.793 117.68 155.793 116.712C155.793 115.743 152.692 114.957 148.868 114.957C145.043 114.957 141.943 115.743 141.943 116.712C141.943 117.68 145.043 118.466 148.868 118.466Z" fill="#FFA866"/>
<path d="M176.65 118.466C180.475 118.466 183.575 117.68 183.575 116.712C183.575 115.743 180.475 114.957 176.65 114.957C172.826 114.957 169.725 115.743 169.725 116.712C169.725 117.68 172.826 118.466 176.65 118.466Z" fill="#FFA866"/>
<path d="M149.034 113.787C142.86 113.787 137.77 108.775 137.77 102.509C137.77 96.3262 142.776 91.2299 149.034 91.2299C155.208 91.2299 160.298 96.2427 160.298 102.509C160.298 108.775 155.292 113.787 149.034 113.787ZM149.034 93.1514C143.861 93.1514 139.606 97.4123 139.606 102.592C139.606 107.772 143.861 112.033 149.034 112.033C154.207 112.033 158.462 107.772 158.462 102.592C158.462 97.3288 154.29 93.1514 149.034 93.1514Z" fill="white"/>
<path d="M177.235 113.787C171.061 113.787 165.971 108.775 165.971 102.509C165.971 96.3262 170.977 91.2299 177.235 91.2299C183.409 91.2299 188.498 96.2427 188.498 102.509C188.498 108.775 183.409 113.787 177.235 113.787ZM177.235 93.1514C172.062 93.1514 167.807 97.4123 167.807 102.592C167.807 107.772 172.062 112.033 177.235 112.033C182.408 112.033 186.663 107.772 186.663 102.592C186.663 97.3288 182.408 93.1514 177.235 93.1514Z" fill="white"/>
<path d="M159.881 103.344L158.796 101.84C160.298 100.754 163.969 99.4175 167.39 101.84L166.305 103.344C163.218 101.005 159.964 103.261 159.881 103.344Z" fill="white"/>
<path d="M160.715 129.578C162.217 130.079 163.886 130.246 165.387 129.912" stroke="#D9D9D9" stroke-width="2" stroke-miterlimit="10" stroke-linecap="round" stroke-linejoin="round"/>
<path d="M128.509 110.278C137.02 104.096 143.611 95.2401 147.115 85.3816C153.122 90.9792 161.633 93.9869 169.809 93.5692C168.224 92.8172 166.973 91.397 166.055 89.8931C173.898 91.7311 180.739 96.5768 185.912 102.759C187.998 105.266 189.833 108.106 192.17 110.362C194.589 112.618 197.76 114.372 201.014 114.038C199.011 105.349 197.009 96.4097 193.755 88.0551C191.752 82.9587 189.416 77.7788 185.161 74.2699C179.988 69.9255 172.646 68.7558 165.888 69.2571C158.629 69.7584 151.537 72.0141 145.28 75.7737C136.853 80.8701 130.262 88.9741 126.841 98.2478C126.09 100.336 125.506 102.425 125.589 104.597C125.673 106.77 126.757 108.942 128.509 110.278Z" fill="#6B3C00"/>
<path d="M135.518 118.132C136.808 118.132 137.854 117.085 137.854 115.793C137.854 114.501 136.808 113.453 135.518 113.453C134.228 113.453 133.182 114.501 133.182 115.793C133.182 117.085 134.228 118.132 135.518 118.132Z" fill="#FFEE3D"/>
<path d="M190.501 118.132C191.791 118.132 192.837 117.085 192.837 115.793C192.837 114.501 191.791 113.453 190.501 113.453C189.211 113.453 188.165 114.501 188.165 115.793C188.165 117.085 189.211 118.132 190.501 118.132Z" fill="#FFEE3D"/>
<path d="M149.618 99.1667C148.784 99.1667 148.116 99.8351 147.699 100.838L149.618 102.759L147.699 104.681C148.116 105.683 148.784 106.352 149.618 106.352C150.869 106.352 151.954 104.764 151.954 102.759C151.871 100.838 150.869 99.1667 149.618 99.1667Z" fill="#453E18"/>
<path d="M176.401 99.1667C175.566 99.1667 174.899 99.8351 174.482 100.838L176.401 102.759L174.482 104.681C174.899 105.683 175.566 106.352 176.401 106.352C177.652 106.352 178.737 104.764 178.737 102.759C178.737 100.838 177.652 99.1667 176.401 99.1667Z" fill="#453E18"/>
<path d="M133.432 94.5718C132.932 90.8958 133.349 87.0527 134.517 83.3766C135.768 79.7006 137.687 76.2751 140.357 73.4346C142.944 70.5104 146.281 68.1711 149.869 66.5837C153.456 64.9963 157.461 64.1609 161.466 64.1609C165.471 64.1609 169.392 64.9963 173.063 66.5837C176.651 68.1711 179.988 70.5104 182.575 73.4346C185.245 76.2751 187.247 79.7841 188.415 83.3766C189.583 87.0527 190 90.8958 189.5 94.5718C188.582 87.2197 185.161 80.6196 179.988 75.941C174.899 71.3459 168.141 68.756 161.383 68.756C154.624 68.756 147.95 71.3459 142.777 75.941C137.771 80.6196 134.35 87.2197 133.432 94.5718Z" fill="white"/>
<path d="M194.756 159.404C191.168 158.485 187.58 158.067 183.993 157.232C176.484 191.736 171.227 226.742 168.224 261.916L209.857 261.331C219.619 261.164 227.462 253.227 227.462 243.452V201.846C227.545 192.238 224.375 182.63 218.451 174.944C212.611 167.257 204.1 161.743 194.756 159.404Z" fill="#FDCC50"/>
<path d="M143.861 156.981C140.107 157.984 136.102 158.401 132.347 159.404C123.003 161.743 114.493 167.257 108.652 174.944C102.812 182.546 99.5579 192.154 99.6413 201.846V263.002L159.714 262.083C156.627 226.743 151.37 191.569 143.861 156.981Z" fill="#FDCC50"/>
<path opacity="0.18" d="M132.347 159.404C131.012 159.738 129.761 160.156 128.509 160.574C125.589 168.845 122.919 177.116 120.583 185.47C125.089 188.06 129.511 191.402 134.433 193.407C132.681 197.752 130.762 202.597 128.927 206.942C138.021 224.403 145.864 243.535 152.205 262.083L159.714 261.999C156.043 226.91 149.618 192.071 140.691 157.733C137.854 158.234 135.101 158.652 132.347 159.404Z" fill="#FDCC50"/>
<path opacity="0.18" d="M199.011 206.942C197.259 202.598 195.424 197.752 193.671 193.407C198.511 191.319 202.766 188.06 207.271 185.47C205.018 177.199 202.432 169.012 199.595 160.908C198.01 160.323 196.425 159.822 194.756 159.404C192.17 158.736 189.416 158.318 186.83 157.817C178.069 192.154 171.812 226.91 168.224 261.916L176.401 261.832C182.575 243.368 190.167 224.403 199.011 206.942Z" fill="#FDCC50"/>
<path d="M143.861 156.981C140.774 157.817 137.604 158.234 134.433 158.903C131.847 167.675 129.51 176.531 127.425 185.47C131.179 188.06 134.767 191.402 138.855 193.407C137.353 197.752 135.851 202.598 134.35 206.942C141.859 224.403 148.283 243.535 153.539 262.083L159.714 261.999C156.626 226.742 151.37 191.569 143.861 156.981Z" fill="#FFAA01"/>
<path d="M194.172 159.237C190.835 158.401 187.33 157.984 183.993 157.148C176.484 191.653 171.228 226.659 168.224 261.832L175.066 261.749C180.322 243.285 186.663 224.32 194.172 206.942C192.67 202.598 191.168 197.752 189.667 193.407C193.755 191.319 197.342 188.06 201.097 185.47C199.011 176.698 196.675 167.926 194.172 159.237Z" fill="#FFAA01"/>
<path d="M146.031 157.399C145.697 157.399 145.28 157.232 145.029 156.981C144.946 156.898 144.946 156.814 144.862 156.731C144.779 156.647 144.779 156.564 144.779 156.48C144.779 156.396 144.696 156.313 144.696 156.229C144.696 156.146 144.696 156.062 144.696 155.979C144.696 155.895 144.696 155.812 144.696 155.728C144.696 155.644 144.779 155.561 144.779 155.477C144.779 155.394 144.862 155.31 144.862 155.227C144.946 155.143 144.946 155.06 145.029 154.976C145.363 154.642 145.864 154.558 146.281 154.642C146.364 154.642 146.448 154.726 146.531 154.726C146.615 154.726 146.698 154.809 146.781 154.893C146.865 154.976 146.948 154.976 147.032 155.06C147.115 155.143 147.115 155.227 147.199 155.31C147.282 155.394 147.282 155.477 147.366 155.561C147.366 155.645 147.449 155.728 147.449 155.812C147.449 155.895 147.449 155.979 147.449 156.062C147.449 156.146 147.449 156.229 147.449 156.313C147.449 156.396 147.366 156.48 147.366 156.564C147.366 156.647 147.282 156.731 147.199 156.814C147.115 156.898 147.115 156.981 147.032 157.065C146.948 157.148 146.865 157.148 146.781 157.232C146.698 157.315 146.615 157.315 146.531 157.399C146.448 157.399 146.364 157.483 146.281 157.483C146.197 157.399 146.114 157.399 146.031 157.399Z" fill="#FFEE3D"/>
<path d="M161.966 165.252C161.299 165.252 160.715 164.667 160.631 163.999C160.464 164.667 159.797 165.085 159.13 165.001C158.462 164.918 157.961 164.333 157.961 163.665C157.711 164.333 157.044 164.667 156.376 164.584C155.709 164.417 155.208 163.832 155.292 163.163C155.041 163.748 154.29 164.082 153.623 163.915C152.955 163.748 152.538 162.996 152.705 162.328C152.371 162.913 151.62 163.163 150.953 162.829C150.286 162.495 150.035 161.743 150.286 161.075C149.785 161.576 149.034 161.66 148.45 161.242C147.866 160.824 147.783 159.989 148.116 159.404C147.532 159.822 146.698 159.654 146.281 159.07C145.864 158.485 145.947 157.566 146.531 157.148C147.115 156.73 148.033 156.814 148.45 157.399C148.784 157.9 148.784 158.485 148.533 158.986C149.034 158.652 149.618 158.652 150.119 159.07C150.619 159.404 150.786 160.072 150.536 160.657C150.953 160.239 151.62 160.072 152.121 160.323C152.705 160.573 152.955 161.242 152.872 161.827C153.206 161.325 153.79 161.075 154.457 161.242C155.041 161.409 155.458 161.994 155.458 162.662C155.709 162.077 156.376 161.743 156.96 161.91C157.628 161.994 158.045 162.579 158.045 163.247C158.295 162.662 158.879 162.244 159.463 162.328C160.131 162.411 160.631 162.913 160.631 163.581C160.798 162.996 161.382 162.579 162.05 162.579C162.717 162.579 163.218 163.08 163.301 163.665C163.385 163.08 163.969 162.579 164.553 162.579C165.22 162.579 165.721 162.996 165.971 163.581C166.055 162.996 166.472 162.411 167.139 162.328C167.807 162.244 168.391 162.579 168.641 163.163C168.641 162.579 169.058 161.994 169.642 161.827C170.226 161.66 170.894 161.994 171.227 162.495C171.144 161.91 171.478 161.242 172.062 161.075C172.646 160.824 173.313 161.075 173.647 161.576C173.48 160.991 173.73 160.323 174.315 160.072C174.899 159.738 175.566 159.905 175.983 160.406C175.733 159.822 175.983 159.153 176.484 158.819C176.984 158.485 177.652 158.485 178.152 158.903C177.819 158.401 177.986 157.649 178.403 157.232C178.987 156.73 179.821 156.73 180.322 157.315C180.822 157.9 180.822 158.735 180.238 159.237C179.738 159.738 178.987 159.738 178.403 159.32C178.737 159.905 178.57 160.657 177.986 161.075C177.402 161.492 176.651 161.409 176.15 160.908C176.4 161.576 176.15 162.244 175.483 162.579C174.899 162.913 174.064 162.746 173.73 162.161C173.897 162.829 173.564 163.498 172.896 163.748C172.229 163.999 171.478 163.748 171.227 163.08C171.311 163.748 170.894 164.417 170.226 164.584C169.559 164.751 168.891 164.417 168.641 163.748C168.641 164.417 168.14 165.001 167.473 165.085C166.805 165.169 166.138 164.751 165.971 164.082C165.888 164.751 165.387 165.336 164.636 165.336C163.969 165.336 163.385 164.918 163.218 164.25C163.218 164.834 162.634 165.252 161.966 165.252Z" fill="#FFEE3D"/>
<path d="M181.24 157.399C180.906 157.399 180.489 157.232 180.239 156.981C179.988 156.73 179.821 156.396 179.821 155.978C179.821 155.644 179.988 155.226 180.239 154.976C180.739 154.475 181.657 154.475 182.158 154.976C182.408 155.226 182.575 155.561 182.575 155.978C182.575 156.396 182.408 156.73 182.158 156.981C181.907 157.315 181.574 157.399 181.24 157.399Z" fill="#FFEE3D"/>
<path d="M154.708 131.499C152.038 131.332 149.368 131.165 146.781 130.58C143.778 129.912 141.358 128.659 139.523 126.988C136.686 124.314 135.434 120.722 134.934 118.132C134.266 114.874 134.35 111.532 134.35 108.273C134.35 107.856 134.767 107.521 135.101 107.521C135.518 107.521 135.852 107.856 135.852 108.273C135.768 111.448 135.768 114.706 136.352 117.798C136.853 120.137 137.937 123.479 140.524 125.902C142.193 127.406 144.362 128.492 147.115 129.16C149.618 129.745 152.205 129.912 154.791 130.079C155.208 130.079 155.542 130.497 155.459 130.915C155.459 131.165 155.125 131.499 154.708 131.499Z" fill="#10837C"/>
<path d="M154.124 132.669C155.69 132.669 156.96 131.771 156.96 130.664C156.96 129.556 155.69 128.659 154.124 128.659C152.557 128.659 151.287 129.556 151.287 130.664C151.287 131.771 152.557 132.669 154.124 132.669Z" fill="#006385"/>
<path d="M110.655 173.941C102.144 182.713 96.2205 193.825 92.1322 205.355C88.0439 216.884 85.6243 228.915 83.2048 240.945C82.5373 244.371 81.7864 247.963 82.7041 251.389C84.4563 258.407 92.2156 262.166 99.391 263.002C106.566 263.837 113.908 262.668 121 264.004C126.173 234.178 124.004 201.177 110.655 173.941Z" fill="#FDCC50"/>
<path d="M134.934 248.13C140.19 246.626 145.53 245.039 150.953 244.454C156.376 243.869 162.05 244.371 167.056 246.794C171.978 249.133 176.067 253.644 177.235 258.991C177.569 260.662 174.315 261.164 172.646 261.665C170.977 262.166 169.225 262.083 167.473 261.916C161.633 261.581 155.876 261.247 150.035 260.913C145.864 260.662 141.358 261.665 137.854 259.409C136.102 258.239 135.101 256.234 134.683 254.229C134.183 252.308 134.85 250.219 134.934 248.13Z" fill="#FFC582"/>
<path d="M98.8902 239.191C114.075 238.355 129.26 238.272 144.445 239.107C145.864 246.209 147.699 254.062 147.115 261.247C134.934 264.506 122.252 264.673 109.987 261.581C101.644 259.66 98.7233 247.796 98.8902 239.191Z" fill="#FDCC50"/>
<path opacity="0.18" d="M136.102 239.024C130.845 236.267 124.588 234.596 118.747 234.011C119.665 225.322 119.915 216.55 119.331 207.861C121.584 214.879 123.169 222.064 123.086 229.416C128.175 231.254 133.181 234.345 136.102 239.024Z" fill="#FDCC50"/>
<path d="M261.41 261.641H88.0344V263.062C88.0344 264.983 89.6196 266.571 91.5386 266.571H257.906C259.825 266.571 261.41 264.983 261.41 263.062V261.641V261.641Z" fill="#DCEDF9"/>
<path d="M261.41 261.641H88.0344V263.062C88.0344 264.983 89.6196 266.571 91.5386 266.571H257.906C259.825 266.571 261.41 264.983 261.41 263.062V261.641V261.641Z" fill="#D0D8ED"/>
<path d="M148.441 263.062V261.641H88.0344V263.062C88.0344 264.983 89.6196 266.571 91.5386 266.571H144.936C146.855 266.571 148.441 264.983 148.441 263.062Z" fill="#D0D8ED"/>
<path d="M261.41 261.641H148.441L173.638 192.298C174.555 189.708 177.392 187.619 179.979 187.619H283.604C286.19 187.619 287.525 189.708 286.607 192.298L261.41 261.641Z" fill="white"/>
<path d="M225.617 224.63C224.199 228.64 219.694 231.899 215.689 231.899C211.684 231.899 209.598 228.64 211.1 224.63C212.518 220.62 217.024 217.362 221.028 217.362C225.033 217.362 227.119 220.62 225.617 224.63Z" fill="#C5CCE0"/>
<path d="M136.343 265.067H132.422C131.921 265.067 131.504 264.649 131.504 264.148C131.504 263.646 131.921 263.229 132.422 263.229H136.343C136.844 263.229 137.261 263.646 137.261 264.148C137.261 264.649 136.844 265.067 136.343 265.067Z" fill="#D0D8ED"/>
<path d="M128.417 265.067H124.495C123.995 265.067 123.578 264.649 123.578 264.148C123.578 263.646 123.995 263.229 124.495 263.229H128.417C128.917 263.229 129.335 263.646 129.335 264.148C129.251 264.649 128.917 265.067 128.417 265.067Z" fill="#D0D8ED"/>
<path d="M120.407 265.067H116.485C115.985 265.067 115.568 264.649 115.568 264.148C115.568 263.646 115.985 263.229 116.485 263.229H120.407C120.907 263.229 121.324 263.646 121.324 264.148C121.324 264.649 120.907 265.067 120.407 265.067Z" fill="#D0D8ED"/>
<path d="M122.365 257.13C115.774 257.13 110.434 251.783 110.434 245.183C110.434 238.583 115.774 233.236 122.365 233.236C128.957 233.236 134.296 238.583 134.296 245.183C134.296 251.783 128.957 257.13 122.365 257.13ZM122.365 236.995C117.86 236.995 114.189 240.671 114.189 245.183C114.189 249.694 117.86 253.37 122.365 253.37C126.871 253.37 130.542 249.694 130.542 245.183C130.625 240.671 126.871 236.995 122.365 236.995Z" fill="#D6D6D6"/>
<path d="M89.1582 256.294C89.1582 257.798 89.3251 259.219 89.7422 260.555C90.7435 264.148 94.0808 266.571 97.7519 266.571H112.353C116.107 266.571 119.361 264.148 120.363 260.555C120.696 259.219 120.947 257.798 120.947 256.294V231.982H89.1582V256.294V256.294Z" fill="white"/>
<path opacity="0.1" d="M112.436 231.982V256.294C112.436 257.798 112.269 259.219 111.852 260.555C110.851 264.148 107.514 266.571 103.843 266.571H112.353C116.107 266.571 119.361 264.148 120.363 260.555C120.696 259.219 120.947 257.798 120.947 256.294V231.982H112.436Z" fill="black"/>
<path d="M274.49 107.635H245.455C240.783 107.635 236.945 111.478 236.945 116.157V130.026C236.945 134.704 240.783 138.548 245.455 138.548H246.457L244.454 141.305C243.787 142.224 244.788 143.393 245.789 142.975L255.05 139.049C255.885 138.715 256.802 138.548 257.637 138.548H274.49C279.163 138.548 283.001 134.704 283.001 130.026V116.157C283.001 111.478 279.246 107.635 274.49 107.635Z" fill="#3ADABD"/>
<path d="M277.16 118.079H242.785C241.951 118.079 241.283 117.41 241.283 116.575C241.283 115.739 241.951 115.071 242.785 115.071H277.16C277.994 115.071 278.662 115.739 278.662 116.575C278.662 117.41 277.994 118.079 277.16 118.079Z" fill="#EDEDED"/>
<path d="M277.16 124.595H242.785C241.951 124.595 241.283 123.927 241.283 123.091C241.283 122.256 241.951 121.588 242.785 121.588H277.16C277.994 121.588 278.662 122.256 278.662 123.091C278.662 123.927 277.994 124.595 277.16 124.595Z" fill="#EDEDED"/>
<path d="M262.142 131.195H242.785C241.951 131.195 241.283 130.527 241.283 129.692C241.283 128.856 241.951 128.188 242.785 128.188H262.142C262.976 128.188 263.644 128.856 263.644 129.692C263.644 130.527 262.976 131.195 262.142 131.195Z" fill="#EDEDED"/>
<path d="M42.8591 80.5071C44.5265 80.5071 45.9064 81.8951 45.9064 83.5722C45.9064 85.2494 44.5265 86.6374 42.8591 86.6374C41.1917 86.6374 39.8118 85.2494 39.8118 83.5722C39.8118 81.8951 41.1917 80.5071 42.8591 80.5071ZM42.8591 81.4902C41.7092 81.4902 40.7892 82.4156 40.7892 83.5722C40.7892 84.7289 41.7092 85.6542 42.8591 85.6542C44.009 85.6542 44.9289 84.7289 44.9289 83.5722C44.9289 82.4156 44.009 81.4902 42.8591 81.4902Z" fill="white"/>
<path d="M31.7622 70.3862C33.4296 70.3862 34.8095 71.7742 34.8095 73.4514C34.8095 75.1285 33.4296 76.5165 31.7622 76.5165C30.0949 76.5165 28.715 75.1285 28.715 73.4514C28.715 71.7742 30.0374 70.3862 31.7622 70.3862ZM31.7622 71.3694C30.6123 71.3694 29.6924 72.2947 29.6924 73.4514C29.6924 74.608 30.6123 75.5334 31.7622 75.5334C32.9122 75.5334 33.8321 74.608 33.8321 73.4514C33.8321 72.2947 32.9122 71.3694 31.7622 71.3694Z" fill="#FFAA01"/>
<path d="M27.7375 87.9097C27.7375 88.1988 27.9675 88.3724 28.1975 88.3724H30.3248C30.6123 88.3724 30.7848 88.141 30.7848 87.9097C30.7848 87.6205 30.5548 87.447 30.3248 87.447H28.1975C27.91 87.447 27.7375 87.6784 27.7375 87.9097Z" fill="white"/>
<path d="M24.0002 87.9097C24.0002 88.1988 24.2302 88.3724 24.4602 88.3724H26.5876C26.875 88.3724 27.0475 88.141 27.0475 87.9097C27.0475 87.6205 26.8175 87.447 26.5876 87.447H24.4602C24.2302 87.447 24.0002 87.6784 24.0002 87.9097Z" fill="white"/>
<path d="M26.9323 84.9602V86.8687C26.9323 87.1579 27.1623 87.3314 27.3923 87.3314C27.6798 87.3314 27.8522 87.1 27.8522 86.8687V84.9602C27.8522 84.6711 27.6223 84.4976 27.3923 84.4976C27.1623 84.4976 26.9323 84.6711 26.9323 84.9602Z" fill="white"/>
<path d="M26.9323 89.0084V90.9169C26.9323 91.2061 27.1623 91.3796 27.3923 91.3796C27.6797 91.3796 27.8522 91.1483 27.8522 90.9169V89.0084C27.8522 88.7193 27.6222 88.5458 27.3923 88.5458C27.1623 88.5458 26.9323 88.7193 26.9323 89.0084Z" fill="white"/>
<path d="M50.046 71.3694C50.046 71.6586 50.2759 71.8321 50.5059 71.8321H52.6333C52.9208 71.8321 53.0932 71.6007 53.0932 71.3694C53.0932 71.0802 52.8633 70.9067 52.6333 70.9067H50.5059C50.2759 70.8489 50.046 71.0802 50.046 71.3694Z" fill="#FFAA01"/>
<path d="M46.3661 71.3694C46.3661 71.6586 46.5961 71.8321 46.8261 71.8321H48.9535C49.2409 71.8321 49.4134 71.6007 49.4134 71.3694C49.4134 71.0802 49.1834 70.9067 48.9535 70.9067H46.8261C46.5961 70.8489 46.3661 71.0802 46.3661 71.3694Z" fill="#FFAA01"/>
<path d="M49.2412 68.3621V70.2706C49.2412 70.5597 49.4712 70.7332 49.7011 70.7332C49.9886 70.7332 50.1611 70.5019 50.1611 70.2706V68.3621C50.1611 68.0729 49.9311 67.8994 49.7011 67.8994C49.4712 67.8994 49.2412 68.1307 49.2412 68.3621Z" fill="#FFAA01"/>
<path d="M49.2409 72.4104V74.3189C49.2409 74.6081 49.4709 74.7816 49.7009 74.7816C49.9884 74.7816 50.1609 74.5502 50.1609 74.3189V72.4104C50.1609 72.1213 49.9309 71.9478 49.7009 71.9478C49.4709 71.9478 49.2409 72.1791 49.2409 72.4104Z" fill="#FFAA01"/>
<path d="M319.523 103.718C321.19 103.718 322.57 105.106 322.57 106.783C322.57 108.46 321.19 109.848 319.523 109.848C317.856 109.848 316.476 108.46 316.476 106.783C316.476 105.048 317.856 103.718 319.523 103.718ZM319.523 108.865C320.673 108.865 321.593 107.939 321.593 106.783C321.593 105.626 320.673 104.701 319.523 104.701C318.373 104.701 317.453 105.626 317.453 106.783C317.453 107.939 318.373 108.865 319.523 108.865Z" fill="white"/>
<path d="M308.542 92.9607C310.209 92.9607 311.589 94.3487 311.589 96.0258C311.589 97.703 310.209 99.091 308.542 99.091C306.874 99.091 305.495 97.703 305.495 96.0258C305.495 94.2909 306.874 92.9607 308.542 92.9607ZM308.542 98.1078C309.692 98.1078 310.612 97.1825 310.612 96.0258C310.612 94.8692 309.692 93.9439 308.542 93.9439C307.392 93.9439 306.472 94.8692 306.472 96.0258C306.472 97.1825 307.392 98.1078 308.542 98.1078Z" fill="#FFAA01"/>
<path d="M304.805 82.9554C305.092 82.9554 305.265 83.1868 305.265 83.4181V85.5579C305.265 85.8471 305.035 86.0206 304.805 86.0206C304.517 86.0206 304.345 85.7893 304.345 85.5579V83.4181C304.345 83.1868 304.517 82.9554 304.805 82.9554Z" fill="white"/>
<path d="M304.805 79.2542C305.092 79.2542 305.265 79.4855 305.265 79.7168V81.8566C305.265 82.1458 305.035 82.3193 304.805 82.3193C304.517 82.3193 304.345 82.088 304.345 81.8566V79.7168C304.345 79.4855 304.517 79.2542 304.805 79.2542Z" fill="white"/>
<path d="M301.815 82.1458H303.712C304 82.1458 304.172 82.3771 304.172 82.6084C304.172 82.8398 303.942 83.0711 303.712 83.0711H301.815C301.527 83.0711 301.355 82.8398 301.355 82.6084C301.355 82.3771 301.585 82.1458 301.815 82.1458Z" fill="white"/>
<path d="M305.839 82.1458H307.736C308.024 82.1458 308.196 82.3771 308.196 82.6084C308.196 82.8398 307.966 83.0711 307.736 83.0711H305.839C305.552 83.0711 305.379 82.8398 305.379 82.6084C305.379 82.3771 305.609 82.1458 305.839 82.1458Z" fill="white"/>
<path d="M321.65 94.8691C321.938 94.8691 322.11 95.1005 322.11 95.3318V97.4716C322.11 97.7608 321.88 97.9343 321.65 97.9343C321.363 97.9343 321.191 97.703 321.191 97.4716V95.3318C321.133 95.0426 321.363 94.8691 321.65 94.8691Z" fill="#FFAA01"/>
<path d="M321.65 91.1678C321.938 91.1678 322.11 91.3992 322.11 91.6305V93.7703C322.11 94.0595 321.88 94.233 321.65 94.233C321.363 94.233 321.19 94.0017 321.19 93.7703V91.6305C321.133 91.3413 321.363 91.1678 321.65 91.1678Z" fill="#FFAA01"/>
<path d="M318.661 94.0594H320.559C320.846 94.0594 321.018 94.2908 321.018 94.5221C321.018 94.8113 320.788 94.9848 320.559 94.9848H318.661C318.374 94.9848 318.201 94.7534 318.201 94.5221C318.201 94.2908 318.431 94.0594 318.661 94.0594Z" fill="#FFAA01"/>
<path d="M322.686 94.0594H324.583C324.87 94.0594 325.043 94.2908 325.043 94.5221C325.043 94.8113 324.813 94.9848 324.583 94.9848H322.686C322.398 94.9848 322.226 94.7534 322.226 94.5221C322.226 94.2908 322.456 94.0594 322.686 94.0594Z" fill="#FFAA01"/>
<path d="M252.562 50.3331C252.627 50.3331 252.692 50.3331 252.758 50.3331C253.543 50.004 253.936 49.8724 254.001 49.8724C254.263 49.8066 254.328 49.5433 254.263 49.28C254.197 49.0168 253.936 48.951 253.674 49.0168C253.674 49.0168 253.216 49.1484 252.365 49.5433C252.169 49.6091 252.038 49.8724 252.104 50.1357C252.3 50.2015 252.431 50.3331 252.562 50.3331Z" fill="#DCEDF9"/>
<path d="M229.856 74.356C229.529 75.1457 229.267 76.0014 229.006 76.857C228.94 77.0544 228.744 77.186 228.548 77.186L228.482 77.186C228.22 77.1202 228.09 76.857 228.155 76.5937C228.417 75.7381 228.678 74.8825 229.006 74.0269C229.071 73.7636 229.333 73.6978 229.595 73.7636C229.856 73.8952 229.987 74.1585 229.856 74.356Z" fill="#DCEDF9"/>
<path d="M228.351 79.4239C228.154 80.2795 227.958 81.1351 227.827 81.9907C227.762 82.254 227.566 82.3856 227.369 82.3856C227.369 82.3856 227.369 82.3856 227.304 82.3856C227.042 82.3198 226.911 82.1224 226.977 81.8591C227.108 81.0035 227.304 80.0821 227.566 79.2265C227.631 78.9632 227.893 78.8316 228.089 78.8974C228.22 78.8974 228.416 79.1607 228.351 79.4239Z" fill="#DCEDF9"/>
<path d="M226.454 92.9161C226.258 92.9161 226.061 92.7187 226.061 92.4554C226.061 91.534 226.061 90.6784 226.061 89.757C226.061 89.4937 226.258 89.2963 226.519 89.2963C226.781 89.2963 226.977 89.4937 226.977 89.757C226.977 90.6126 226.977 91.534 226.977 92.3896C226.977 92.7187 226.781 92.9161 226.454 92.9161C226.454 92.9161 226.519 92.9161 226.454 92.9161Z" fill="#DCEDF9"/>
<path d="M226.977 84.0968C227.239 84.0968 227.37 84.36 227.37 84.6233C227.305 85.0182 227.239 85.4131 227.239 85.808C227.174 86.2687 227.174 86.7294 227.108 87.1901C227.108 87.4534 226.847 87.6508 226.65 87.585C226.389 87.585 226.258 87.3218 226.258 87.1243C226.323 86.6636 226.323 86.1371 226.389 85.6764C226.454 85.2815 226.454 84.8207 226.519 84.4259C226.519 84.2284 226.781 84.031 226.977 84.0968Z" fill="#DCEDF9"/>
<path d="M230.904 71.9209C230.838 72.1183 230.642 72.1841 230.446 72.1841C230.38 72.1841 230.38 72.1841 230.315 72.1183C230.118 71.9867 229.988 71.7234 230.118 71.526C230.511 70.7362 230.904 69.8806 231.296 69.0908C231.427 68.8933 231.689 68.7617 231.885 68.8933C232.081 69.025 232.212 69.2882 232.081 69.4857C231.623 70.3413 231.231 71.1311 230.904 71.9209Z" fill="#DCEDF9"/>
<path d="M250.468 51.3862C249.683 51.7811 248.963 52.176 248.178 52.6367C248.112 52.7026 247.981 52.7026 247.916 52.7026C247.785 52.7026 247.654 52.6367 247.589 52.5051C247.458 52.3077 247.523 52.0444 247.72 51.9128C248.505 51.4521 249.29 50.9913 250.075 50.5964C250.272 50.4648 250.533 50.5964 250.664 50.7939C250.73 51.0572 250.664 51.3204 250.468 51.3862Z" fill="#DCEDF9"/>
<path d="M243.793 55.6643C243.728 55.7301 243.597 55.7959 243.466 55.7301C243.335 55.7301 243.204 55.6643 243.139 55.5327C243.008 55.3352 243.008 55.072 243.204 54.8745C243.924 54.348 244.644 53.8215 245.364 53.2949C245.56 53.1633 245.822 53.2291 245.953 53.4266C246.083 53.624 246.018 53.8873 245.822 54.0189C245.233 54.6112 244.513 55.072 243.793 55.6643Z" fill="#DCEDF9"/>
<path d="M239.802 59.0868C239.671 59.1526 239.54 59.2184 239.475 59.2184C239.344 59.2184 239.279 59.1526 239.213 59.0868C239.017 58.8893 239.017 58.6261 239.213 58.4286C239.868 57.8363 240.522 57.1781 241.176 56.5858C241.372 56.4541 241.634 56.4541 241.83 56.6516C241.961 56.849 241.961 57.1123 241.765 57.3097C241.111 57.8363 240.456 58.4944 239.802 59.0868Z" fill="#DCEDF9"/>
<path d="M236.335 62.9698C236.204 63.1014 236.073 63.1672 235.942 63.1672C235.877 63.1672 235.811 63.1014 235.68 63.1014C235.484 62.9698 235.484 62.6407 235.615 62.4433C236.138 61.7193 236.727 61.0611 237.381 60.403C237.578 60.2055 237.84 60.2055 238.036 60.403C238.232 60.6004 238.232 60.8637 238.036 61.0611C237.447 61.5877 236.858 62.3116 236.335 62.9698Z" fill="#DCEDF9"/>
<path d="M233.324 67.3137C233.259 67.4454 233.062 67.5112 232.866 67.5112C232.801 67.5112 232.735 67.5112 232.67 67.4454C232.474 67.3137 232.408 67.0505 232.539 66.853C232.997 66.0632 233.52 65.3393 233.978 64.6153C234.109 64.4178 234.371 64.352 234.567 64.4836C234.764 64.6153 234.829 64.8785 234.698 65.076C234.24 65.8 233.782 66.5239 233.324 67.3137Z" fill="#DCEDF9"/>
<path d="M252.627 47.2398L250.664 40L274.547 40.1974L252.627 47.2398Z" fill="#FDCC50"/>
<path d="M274.547 40.1975L253.739 49.0169L253.674 49.0169L252.823 50.5306L252.627 47.2398L274.547 40.1975Z" fill="#FFAA01"/>
<path d="M252.824 50.5306L254.721 50.2015L253.675 49.0168L252.824 50.5306Z" fill="#F88800"/>
<path d="M256.291 47.9638L253.674 49.0169L259.105 55.1377L274.547 40.1975L256.291 47.9638Z" fill="#FDCC50"/>
</svg>
