<svg width="44" height="44" viewBox="0 0 44 44" fill="none" xmlns="http://www.w3.org/2000/svg">
<circle cx="22" cy="22" r="22" fill="#FFF2E6"/>
<path d="M14.4168 25.25C13.3985 25.25 12.456 25.6075 11.7085 26.2033C10.7118 26.9942 10.0835 28.2183 10.0835 29.5833C10.0835 30.3958 10.311 31.165 10.7118 31.815C11.4593 33.0717 12.8352 33.9167 14.4168 33.9167C15.511 33.9167 16.5077 33.5158 17.266 32.8333C17.6018 32.5517 17.8943 32.205 18.1218 31.815C18.5227 31.165 18.7502 30.3958 18.7502 29.5833C18.7502 27.1892 16.811 25.25 14.4168 25.25ZM16.6593 29.1175L14.3518 31.2516C14.2002 31.3925 13.9943 31.4683 13.7993 31.4683C13.5935 31.4683 13.3877 31.3925 13.2252 31.23L12.1527 30.1575C11.8385 29.8434 11.8385 29.3233 12.1527 29.0091C12.4668 28.695 12.9868 28.695 13.301 29.0091L13.821 29.5292L15.5543 27.9258C15.8793 27.6225 16.3993 27.6442 16.7027 27.9692C17.006 28.2942 16.9843 28.8142 16.6593 29.1175Z" fill="#F49A40"/>
<path opacity="0.4" d="M30.1035 23.0292H32.2918V21.4692C32.2918 19.2267 30.461 17.3959 28.2185 17.3959H15.7818C13.5393 17.3959 11.7085 19.2267 11.7085 21.4692V26.2034C12.456 25.6075 13.3985 25.25 14.4168 25.25C16.811 25.25 18.7502 27.1892 18.7502 29.5834C18.7502 30.3959 18.5227 31.165 18.1218 31.815C17.8943 32.205 17.6018 32.5517 17.266 32.8334H28.2185C30.461 32.8334 32.2918 31.0025 32.2918 28.76V27.4709H30.2335C29.0635 27.4709 27.991 26.615 27.8935 25.445C27.8285 24.7625 28.0885 24.1234 28.5435 23.6792C28.9443 23.2675 29.4968 23.0292 30.1035 23.0292Z" fill="#F49A40"/>
<path d="M25.0877 13.2792V17.3958H15.7818C13.5393 17.3958 11.7085 19.2267 11.7085 21.4692V17.4934C11.7085 16.2042 12.4993 15.0558 13.7018 14.6008L22.3035 11.3508C23.6468 10.8525 25.0877 11.8383 25.0877 13.2792Z" fill="#F49A40"/>
<path d="M33.4398 24.1341V26.3659C33.4398 26.9617 32.9632 27.4491 32.3565 27.4708H30.2332C29.0632 27.4708 27.9907 26.615 27.8932 25.445C27.8282 24.7625 28.0882 24.1233 28.5432 23.6791C28.944 23.2675 29.4965 23.0292 30.1032 23.0292H32.3565C32.9632 23.0508 33.4398 23.5383 33.4398 24.1341Z" fill="#F49A40"/>
<path d="M24.1668 22.8125H16.5835C16.1393 22.8125 15.771 22.4442 15.771 22C15.771 21.5558 16.1393 21.1875 16.5835 21.1875H24.1668C24.611 21.1875 24.9793 21.5558 24.9793 22C24.9793 22.4442 24.611 22.8125 24.1668 22.8125Z" fill="#F49A40"/>
</svg>
