<svg width="44" height="44" viewBox="0 0 44 44" fill="none" xmlns="http://www.w3.org/2000/svg">
<circle cx="22" cy="22" r="22" fill="#FFEBEA"/>
<path opacity="0.4" d="M27.4165 17.3958C27.2107 17.3958 27.0048 17.32 26.8423 17.1575C26.5282 16.8433 26.5282 16.3233 26.8423 16.0091L29.0632 13.7883C27.1565 12.1633 24.6973 11.1666 21.9998 11.1666C16.0198 11.1666 11.1665 16.02 11.1665 22C11.1665 27.98 16.0198 32.8333 21.9998 32.8333C27.9798 32.8333 32.8332 27.98 32.8332 22C32.8332 19.3025 31.8365 16.8433 30.2115 14.9366L27.9907 17.1575C27.8282 17.32 27.6223 17.3958 27.4165 17.3958Z" fill="#FF4437"/>
<path d="M23.8957 21.805L22.8123 21.4258V19.0208H22.899C23.4515 19.0208 23.8957 19.5083 23.8957 20.1042C23.8957 20.5483 24.264 20.9167 24.7082 20.9167C25.1523 20.9167 25.5207 20.5483 25.5207 20.1042C25.5207 18.6092 24.3507 17.3958 22.899 17.3958H22.8123V17.125C22.8123 16.6808 22.444 16.3125 21.9998 16.3125C21.5557 16.3125 21.1873 16.6808 21.1873 17.125V17.3958H20.8624C19.5515 17.3958 18.479 18.5008 18.479 19.8658C18.479 21.4475 19.3998 21.9567 20.104 22.2058L21.1873 22.585V24.99H21.1007C20.5482 24.99 20.104 24.5025 20.104 23.9067C20.104 23.4625 19.7357 23.0942 19.2915 23.0942C18.8473 23.0942 18.479 23.4625 18.479 23.9067C18.479 25.4017 19.649 26.615 21.1007 26.615H21.1873V26.8858C21.1873 27.33 21.5557 27.6983 21.9998 27.6983C22.444 27.6983 22.8123 27.33 22.8123 26.8858V26.615H23.1373C24.4482 26.615 25.5207 25.51 25.5207 24.145C25.5207 22.5525 24.5998 22.0433 23.8957 21.805ZM20.6348 20.6567C20.2665 20.5267 20.104 20.4508 20.104 19.855C20.104 19.3892 20.4507 19.01 20.8624 19.01H21.1873V20.8408L20.6348 20.6567ZM23.1373 24.9792H22.8123V23.1483L23.3648 23.3433C23.7332 23.4733 23.8957 23.5492 23.8957 24.145C23.8957 24.6 23.549 24.9792 23.1373 24.9792Z" fill="#FF4437"/>
<path d="M33.5809 10.8526C33.4943 10.6576 33.3426 10.4951 33.1368 10.4084C33.0393 10.3651 32.9309 10.3434 32.8226 10.3434H28.4893C28.0451 10.3434 27.6768 10.7117 27.6768 11.1559C27.6768 11.6001 28.0451 11.9684 28.4893 11.9684H30.8618L29.0526 13.7776C29.4643 14.1351 29.8434 14.5142 30.2009 14.9259L32.0101 13.1167V15.5001C32.0101 15.9442 32.3784 16.3126 32.8226 16.3126C33.2668 16.3126 33.6351 15.9442 33.6351 15.5001V11.1667C33.6459 11.0584 33.6243 10.9609 33.5809 10.8526Z" fill="#FF4437"/>
</svg>
