<svg width="44" height="44" viewBox="0 0 44 44" fill="none" xmlns="http://www.w3.org/2000/svg">
<circle cx="22" cy="22" r="22" fill="#DDFFE7"/>
<path d="M31.7177 17.6667H28.5327C27.1568 17.6667 26.3335 16.8434 26.3335 15.4675V12.2825C26.3335 10.9067 27.1568 10.0834 28.5327 10.0834H31.7177C33.0935 10.0834 33.9168 10.9067 33.9168 12.2825V15.4675C33.9168 16.8434 33.0935 17.6667 31.7177 17.6667ZM31.956 14.0809C31.826 13.9509 31.6527 13.8859 31.4793 13.8859C31.306 13.8859 31.1327 13.9509 31.0027 14.0809L30.8077 14.2759V11.8492C30.8077 11.47 30.5043 11.1667 30.1252 11.1667C29.746 11.1667 29.4427 11.47 29.4427 11.8492V14.2759L29.2477 14.0809C28.9877 13.8209 28.5543 13.8209 28.2943 14.0809C28.0343 14.3409 28.0343 14.7742 28.2943 15.0342L29.6485 16.3884C29.7027 16.4425 29.7785 16.4859 29.8543 16.5184C29.876 16.5292 29.8977 16.5292 29.9193 16.54C29.9735 16.5617 30.0277 16.5725 30.0927 16.5725C30.1143 16.5725 30.136 16.5725 30.1577 16.5725C30.2335 16.5725 30.2985 16.5617 30.3743 16.5292C30.3852 16.5292 30.3852 16.5292 30.396 16.5292C30.4718 16.4967 30.5368 16.4534 30.591 16.3992C30.6018 16.3884 30.6018 16.3884 30.6127 16.3884L31.9668 15.0342C32.2268 14.7742 32.2268 14.3409 31.956 14.0809Z" fill="#27C153"/>
<path opacity="0.4" d="M32.8332 17.4175V18.75H11.1665V17.1683C11.1665 14.6875 13.1815 12.6833 15.6623 12.6833H26.3332V15.4675C26.3332 16.8433 27.1565 17.6667 28.5323 17.6667H31.7173C32.1507 17.6667 32.519 17.5908 32.8332 17.4175Z" fill="#27C153"/>
<path d="M11.1665 18.75V26.8317C11.1665 29.3125 13.1815 31.3167 15.6623 31.3167H28.3373C30.8182 31.3167 32.8332 29.3125 32.8332 26.8317V18.75H11.1665ZM17.6665 27.6875H15.4998C15.0557 27.6875 14.6873 27.3192 14.6873 26.875C14.6873 26.4308 15.0557 26.0625 15.4998 26.0625H17.6665C18.1107 26.0625 18.479 26.4308 18.479 26.875C18.479 27.3192 18.1107 27.6875 17.6665 27.6875ZM24.7082 27.6875H20.3748C19.9307 27.6875 19.5623 27.3192 19.5623 26.875C19.5623 26.4308 19.9307 26.0625 20.3748 26.0625H24.7082C25.1523 26.0625 25.5207 26.4308 25.5207 26.875C25.5207 27.3192 25.1523 27.6875 24.7082 27.6875Z" fill="#27C153"/>
</svg>
